<?xml version="1.0" encoding="utf-8"?>
<!-- Generator: Adobe Illustrator 24.3.0, SVG Export Plug-In . SVG Version: 6.00 Build 0)  -->
<svg version="1.1" id="Layer_1" xmlns="http://www.w3.org/2000/svg" xmlns:xlink="http://www.w3.org/1999/xlink" x="0px" y="0px"
	 viewBox="0 0 157.8 136.1" style="enable-background:new 0 0 157.8 136.1;" xml:space="preserve">
<style type="text/css">
	.st0{fill:#F29C1F;}
</style>
<g>
	<path class="st0" d="M67.5,45.5c-2.2,0.2-4.4-0.3-6.2-1.4L42.9,81.9c0.9,0.8,1.6,2,1.7,3.4c0,0.6,0,1.1-0.1,1.6l37.7,7.9
		c1-2.4,2.7-4.5,4.9-6L69.9,45.1C69.2,45.3,68.3,45.5,67.5,45.5z"/>
	<path class="st0" d="M143.7,0H14.1C6.3,0,0,6.3,0,14.1V122c0,7.8,6.3,14.1,14.1,14.1h129.5c7.8,0,14.1-6.3,14.1-14.1V14.1
		C157.8,6.3,151.4,0,143.7,0z M147.6,93.4c-3.8,5.3-11.3,6.5-16.6,2.7c-5.3-3.8-6.5-11.2-2.7-16.5c0.8-1.1,1.7-1.9,2.6-2.6l-10-24.8
		c-0.7,0.5-1.5,0.8-2.4,0.9c-0.9,0.1-1.7-0.1-2.4-0.4l-14,37.2c2.5,2.1,4.2,5.2,4.5,8.7c0.6,7-4.6,13.2-11.7,13.7
		c-7,0.6-13.1-4.7-13.7-11.7c-0.1-0.9,0-1.8,0.1-2.7l-37-10.5c-0.6,1.9-2.4,3.4-4.5,3.5c-2.8,0.2-5.3-1.9-5.5-4.7
		c-0.2-1.9,0.8-3.7,2.3-4.7L20,58.5c-4.5,1.6-9.5-0.6-11.4-5c-2-4.6,0.2-10,4.9-12c4.6-2,10,0.2,12,4.8c1.4,3.3,0.7,7-1.5,9.5
		l13.3,25.2c0.6-0.3,1.2-0.5,1.8-0.5c0.1,0,0.2,0,0.3,0l21.3-36.8c-2.7-1.8-4.5-4.7-4.8-8.1c-0.5-6,4-11.2,9.9-11.7
		c6-0.5,11.2,4,11.7,9.9c0,0.4,0,0.9,0,1.3l35.8,11c0.6-1.9,2.4-3.3,4.5-3.5c2.9-0.2,5.3,1.9,5.6,4.7c0.1,1.7-0.6,3.2-1.8,4.3
		l12.5,23.6c3.5-1.2,7.6-0.8,10.9,1.5C150.3,80.7,151.5,88.1,147.6,93.4z"/>
	<path class="st0" d="M113,48.3c0-0.5,0-1.1,0.1-1.6l-36.3-8.4c-1,2.8-3,5.1-5.8,6.3l22.5,42.2c1.2,0,2.4,0.1,3.5,0.4l18.3-35
		C114.1,51.4,113.1,49.9,113,48.3z"/>
</g>
</svg>
